<?xml version="1.0" encoding="utf-8"?>
<svg version="1.1" xmlns:xlink="http://www.w3.org/1999/xlink" width="12px" height="12px" viewBox="177 239.5  12 12" xmlns="http://www.w3.org/2000/svg">
  <path d="M 183 239.5  C 186.36 239.5  189 242.14  189 245.5  C 189 248.86  186.36 251.5  183 251.5  C 179.64 251.5  177 248.86  177 245.5  C 177 242.14  179.64 239.5  183 239.5  Z " fill-rule="nonzero" fill="#ffffff" stroke="none" />
  <path d="M 183 240  C 186.08 240  188.5 242.42  188.5 245.5  C 188.5 248.58  186.08 251  183 251  C 179.92 251  177.5 248.58  177.5 245.5  C 177.5 242.42  179.92 240  183 240  Z " stroke-width="1" stroke="#797979" fill="none" />
  <path d="M 183 248.5  C 181.32 248.5  180 247.18  180 245.5  C 180 243.82  181.32 242.5  183 242.5  C 184.68 242.5  186 243.82  186 245.5  C 186 247.18  184.68 248.5  183 248.5  " fill-rule="nonzero" fill="#797979" stroke="none" />
</svg>