<?xml version="1.0" encoding="utf-8"?>
<svg version="1.1" xmlns:xlink="http://www.w3.org/1999/xlink" width="12px" height="12px" viewBox="351 87.5  12 12" xmlns="http://www.w3.org/2000/svg">
  <path d="M 357 87.5  C 360.36 87.5  363 90.14  363 93.5  C 363 96.86  360.36 99.5  357 99.5  C 353.64 99.5  351 96.86  351 93.5  C 351 90.14  353.64 87.5  357 87.5  Z " fill-rule="nonzero" fill="#ffffff" stroke="none" />
  <path d="M 357 88  C 360.08 88  362.5 90.42  362.5 93.5  C 362.5 96.58  360.08 99  357 99  C 353.92 99  351.5 96.58  351.5 93.5  C 351.5 90.42  353.92 88  357 88  Z " stroke-width="1" stroke="#797979" fill="none" />
  <path d="M 357 96.5  C 355.32 96.5  354 95.18  354 93.5  C 354 91.82  355.32 90.5  357 90.5  C 358.68 90.5  360 91.82  360 93.5  C 360 95.18  358.68 96.5  357 96.5  " fill-rule="nonzero" fill="#797979" stroke="none" />
</svg>