<?xml version="1.0" encoding="utf-8"?>
<svg version="1.1" xmlns:xlink="http://www.w3.org/1999/xlink" width="12px" height="12px" viewBox="495 87.5  12 12" xmlns="http://www.w3.org/2000/svg">
  <path d="M 501 87.5  C 504.36 87.5  507 90.14  507 93.5  C 507 96.86  504.36 99.5  501 99.5  C 497.64 99.5  495 96.86  495 93.5  C 495 90.14  497.64 87.5  501 87.5  Z " fill-rule="nonzero" fill="#ffffff" stroke="none" />
  <path d="M 501 88  C 504.08 88  506.5 90.42  506.5 93.5  C 506.5 96.58  504.08 99  501 99  C 497.92 99  495.5 96.58  495.5 93.5  C 495.5 90.42  497.92 88  501 88  Z " stroke-width="1" stroke="#797979" fill="none" />
  <path d="M 501 96.5  C 499.32 96.5  498 95.18  498 93.5  C 498 91.82  499.32 90.5  501 90.5  C 502.68 90.5  504 91.82  504 93.5  C 504 95.18  502.68 96.5  501 96.5  " fill-rule="nonzero" fill="#797979" stroke="none" />
</svg>