<?xml version="1.0" encoding="utf-8"?>
<svg version="1.1" xmlns:xlink="http://www.w3.org/1999/xlink" width="12px" height="12px" viewBox="86 87.5  12 12" xmlns="http://www.w3.org/2000/svg">
  <path d="M 92 87.5  C 95.36 87.5  98 90.14  98 93.5  C 98 96.86  95.36 99.5  92 99.5  C 88.64 99.5  86 96.86  86 93.5  C 86 90.14  88.64 87.5  92 87.5  Z " fill-rule="nonzero" fill="#ffffff" stroke="none" />
  <path d="M 92 88  C 95.08 88  97.5 90.42  97.5 93.5  C 97.5 96.58  95.08 99  92 99  C 88.92 99  86.5 96.58  86.5 93.5  C 86.5 90.42  88.92 88  92 88  Z " stroke-width="1" stroke="#797979" fill="none" />
  <path d="M 92 96.5  C 90.32 96.5  89 95.18  89 93.5  C 89 91.82  90.32 90.5  92 90.5  C 93.68 90.5  95 91.82  95 93.5  C 95 95.18  93.68 96.5  92 96.5  " fill-rule="nonzero" fill="#797979" stroke="none" />
</svg>