<?xml version="1.0" encoding="utf-8"?>
<svg version="1.1" xmlns:xlink="http://www.w3.org/1999/xlink" width="12px" height="12px" viewBox="755 439.5  12 12" xmlns="http://www.w3.org/2000/svg">
  <path d="M 761 439.5  C 764.36 439.5  767 442.14  767 445.5  C 767 448.86  764.36 451.5  761 451.5  C 757.64 451.5  755 448.86  755 445.5  C 755 442.14  757.64 439.5  761 439.5  Z " fill-rule="nonzero" fill="#ffffff" stroke="none" />
  <path d="M 761 440  C 764.08 440  766.5 442.42  766.5 445.5  C 766.5 448.58  764.08 451  761 451  C 757.92 451  755.5 448.58  755.5 445.5  C 755.5 442.42  757.92 440  761 440  Z " stroke-width="1" stroke="#797979" fill="none" />
  <path d="M 761 448.5  C 759.32 448.5  758 447.18  758 445.5  C 758 443.82  759.32 442.5  761 442.5  C 762.68 442.5  764 443.82  764 445.5  C 764 447.18  762.68 448.5  761 448.5  " fill-rule="nonzero" fill="#797979" stroke="none" />
</svg>