<?xml version="1.0" encoding="utf-8"?>
<svg version="1.1" xmlns:xlink="http://www.w3.org/1999/xlink" width="12px" height="12px" viewBox="772 87.5  12 12" xmlns="http://www.w3.org/2000/svg">
  <path d="M 778 87.5  C 781.36 87.5  784 90.14  784 93.5  C 784 96.86  781.36 99.5  778 99.5  C 774.64 99.5  772 96.86  772 93.5  C 772 90.14  774.64 87.5  778 87.5  Z " fill-rule="nonzero" fill="#ffffff" stroke="none" />
  <path d="M 778 88  C 781.08 88  783.5 90.42  783.5 93.5  C 783.5 96.58  781.08 99  778 99  C 774.92 99  772.5 96.58  772.5 93.5  C 772.5 90.42  774.92 88  778 88  Z " stroke-width="1" stroke="#797979" fill="none" />
  <path d="M 778 96.5  C 776.32 96.5  775 95.18  775 93.5  C 775 91.82  776.32 90.5  778 90.5  C 779.68 90.5  781 91.82  781 93.5  C 781 95.18  779.68 96.5  778 96.5  " fill-rule="nonzero" fill="#797979" stroke="none" />
</svg>