<?xml version="1.0" encoding="utf-8"?>
<svg version="1.1" xmlns:xlink="http://www.w3.org/1999/xlink" width="12px" height="12px" viewBox="70 363.5  12 12" xmlns="http://www.w3.org/2000/svg">
  <path d="M 76 363.5  C 79.36 363.5  82 366.14  82 369.5  C 82 372.86  79.36 375.5  76 375.5  C 72.64 375.5  70 372.86  70 369.5  C 70 366.14  72.64 363.5  76 363.5  Z " fill-rule="nonzero" fill="#ffffff" stroke="none" />
  <path d="M 76 364  C 79.08 364  81.5 366.42  81.5 369.5  C 81.5 372.58  79.08 375  76 375  C 72.92 375  70.5 372.58  70.5 369.5  C 70.5 366.42  72.92 364  76 364  Z " stroke-width="1" stroke="#797979" fill="none" />
  <path d="M 76 372.5  C 74.32 372.5  73 371.18  73 369.5  C 73 367.82  74.32 366.5  76 366.5  C 77.68 366.5  79 367.82  79 369.5  C 79 371.18  77.68 372.5  76 372.5  " fill-rule="nonzero" fill="#797979" stroke="none" />
</svg>